<?xml version="1.0" standalone="no"?><!DOCTYPE svg PUBLIC "-//W3C//DTD SVG 1.1//EN" "http://www.w3.org/Graphics/SVG/1.1/DTD/svg11.dtd"><svg t="1500822774018" class="icon" style="" viewBox="0 0 1024 1024" version="1.1" xmlns="http://www.w3.org/2000/svg" p-id="4097" xmlns:xlink="http://www.w3.org/1999/xlink" width="200" height="200"><defs><style type="text/css"></style></defs><path d="M513.404488 13.127995c-207.754694 0-376.184755 166.490895-376.184755 371.836727 0 205.343785 376.184755 619.766422 376.184755 619.766422s376.184755-414.422637 376.184755-619.766422C889.590266 179.61889 721.161229 13.127995 513.404488 13.127995zM513.404488 632.863718c-138.497331 0-250.794953-110.971417-250.794953-247.898996 0-136.897903 112.297622-247.90002 250.794953-247.90002 138.499377 0 250.794953 111.00314 250.794953 247.90002C764.199441 521.892301 651.903865 632.863718 513.404488 632.863718zM513.404488 261.029038c-69.25634 0-125.389802 55.487755-125.389802 123.935684 0 68.448952 56.133462 123.965359 125.389802 123.965359s125.389802-55.515385 125.389802-123.965359C638.795313 316.516794 582.660828 261.029038 513.404488 261.029038z" p-id="4098" fill="#479BF1"></path></svg>