<?xml version="1.0" standalone="no"?><!DOCTYPE svg PUBLIC "-//W3C//DTD SVG 1.1//EN" "http://www.w3.org/Graphics/SVG/1.1/DTD/svg11.dtd"><svg t="1500711452407" class="icon" style="" viewBox="0 0 1024 1024" version="1.1" xmlns="http://www.w3.org/2000/svg" p-id="15967" xmlns:xlink="http://www.w3.org/1999/xlink" width="200" height="200"><defs><style type="text/css"></style></defs><path d="M259.048429 134.334521c85.677335-13.33675 186.702216-5.484921 296.201096-5.484921 154.988934 0 289.310152-14.646582 329.11267 82.277912 21.98778 53.544497 10.969842 115.656113 10.969842 153.585981 0 115.898637 26.762527 394.700457-21.939685 471.727785-8.433066 13.33675-38.058804 40.187281-60.337203 49.366338-71.973218 29.652344-205.003024 10.970866-301.686017 10.970866-164.143431 0-327.563384 27.6395-372.994086-82.277912-32.79287-79.339999-10.970866-338.198605-10.970866-460.756919 0-27.317159-9.54233-93.462648 10.970866-142.615115C156.383188 167.974689 201.164091 143.344732 259.048429 134.334521zM703.349561 430.535617c61.211107-203.128327-239.259222-151.566998-378.479007-153.585981 0 160.898527 0 321.7991 0 482.69865 124.227326-8.600889 309.915445 27.76639 378.479007-49.367361 28.786627-32.383548 45.367257-99.078553 16.455787-159.069879-14.398942-29.879518-43.252083-34.652218-71.308069-60.337203C679.420569 472.569966 694.057941 461.369879 703.349561 430.535617z" fill="#13227a" p-id="15968"></path><path d="M434.575118 353.742626c42.825364 15.683191 123.754558-6.736425 159.070902 16.455787 51.684126 97.568153-67.080791 109.325941-159.070902 98.733699C434.575118 430.535617 434.575118 392.139122 434.575118 353.742626z" fill="#13227a" p-id="15969"></path><path d="M615.585705 655.428643c-37.360909 30.289863-114.706485 20.595061-181.01161 21.940708 0-43.881416 0-87.763856 0-131.644249C539.550984 534.164812 668.470169 544.17991 615.585705 655.428643z" fill="#13227a" p-id="15970"></path></svg>