<?xml version="1.0" standalone="no"?><!DOCTYPE svg PUBLIC "-//W3C//DTD SVG 1.1//EN" "http://www.w3.org/Graphics/SVG/1.1/DTD/svg11.dtd"><svg t="1499860314077" class="icon" style="" viewBox="0 0 1024 1024" version="1.1" xmlns="http://www.w3.org/2000/svg" p-id="16620" xmlns:xlink="http://www.w3.org/1999/xlink" width="200" height="200"><defs><style type="text/css"></style></defs><path d="M512 0a512 512 0 0 0-512 512 512 512 0 0 0 350.08 485.76c25.6 4.8 35.008-11.008 35.008-24.64 0-12.16-0.448-44.352-0.64-87.04-142.464 30.912-172.48-68.672-172.48-68.672-23.296-59.136-56.96-74.88-56.96-74.88-46.4-31.744 3.584-31.104 3.584-31.104 51.392 3.584 78.4 52.736 78.4 52.736 45.696 78.272 119.872 55.68 149.12 42.56 4.608-33.088 17.792-55.68 32.448-68.48-113.728-12.8-233.216-56.832-233.216-252.992 0-55.872 19.84-101.568 52.672-137.408-5.76-12.928-23.04-64.96 4.48-135.488 0 0 42.88-13.76 140.8 52.48a490.88 490.88 0 0 1 128-17.28 490.88 490.88 0 0 1 128 17.28c97.28-66.24 140.16-52.48 140.16-52.48 27.52 70.528 10.24 122.56 5.12 135.488a198.4 198.4 0 0 1 52.48 137.408c0 196.672-119.68 240-233.6 252.608 17.92 15.36 34.56 46.72 34.56 94.72 0 68.48-0.64 123.52-0.64 140.16 0 13.44 8.96 29.44 35.2 24.32A510.208 510.208 0 0 0 1024 512a512 512 0 0 0-512-512" fill="#ffffff" p-id="16621"></path></svg>