<?xml version="1.0" standalone="no"?><!DOCTYPE svg PUBLIC "-//W3C//DTD SVG 1.1//EN" "http://www.w3.org/Graphics/SVG/1.1/DTD/svg11.dtd"><svg t="1500814736242" class="icon" style="" viewBox="0 0 1288 1024" version="1.1" xmlns="http://www.w3.org/2000/svg" p-id="1031" xmlns:xlink="http://www.w3.org/1999/xlink" width="251.5625" height="200"><defs><style type="text/css"></style></defs><path d="M1222.214108 318.655203L671.729837 30.156304a72.17288 72.17288 0 0 0-66.955154 0.001417L54.257837 318.653787C30.399911 331.151402 15.57953 355.639591 15.57953 382.565267c0 26.963917 14.837378 51.459187 38.686805 63.910064l166.698135 87.260946v294.832686c0 7.931397 1.331342 15.546954 3.777328 22.612979 3.884968 14.450722 13.232686 31.460736 33.549809 48.135082 30.673261 25.162357 89.19564 51.471934 160.562634 72.188459 74.22088 21.545073 149.066357 33.406761 210.745715 33.40676 3.491231 0.001416 6.985295-0.032575 10.476525-0.104807 64.165001-1.48997 164.145925-19.613212 243.132725-44.071657 115.05766-35.627552 170.991004-77.409018 170.991004-127.733732h-0.09631c0.470219-3.266036 0.715242-6.60997 0.715242-10.011972V534.100271l142.25527-74.46307v384.907861h63.142418V392.445521c0.447557-3.256122 0.677001-6.571729 0.677001-9.919911 0.001416-26.867607-14.810467-51.335967-38.679723-63.870407zM991.676725 822.994324c0 2.625859-1.259109 3.87647-1.5707 4.046428a1.237864 1.237864 0 0 1 0.461721-0.097726v7.921483c-3.767414 8.633892-30.589698 36.000044-126.035563 65.554412-74.036758 22.925986-166.937494 39.89351-225.843696 41.261677-2.92187 0.058069-5.981123 0.090645-9.087115 0.090644-55.080719 0-125.478949-11.264-193.145095-30.906954-61.597212-17.878219-114.519458-41.010988-138.108283-60.360764-8.071613-6.624133-12.891353-13.168952-12.891352-17.500061h-0.184122v-0.651507c0.138799 0 0.305925 0.043906 0.368243 0.079314-0.410733-0.211032-1.529627-1.518296-1.529626-3.860891v-261.778589l320.670628 167.862351a72.441981 72.441981 0 0 0 33.474744 8.241571c11.64499 0 23.229079-2.863801 33.432254-8.235906L991.679557 567.157201l-0.002832 255.837123z m201.322932-432.496244L642.327015 678.751956c-2.488476 1.311513-5.673781 1.315762-8.257151-0.039657L83.520443 390.516492c-2.914788-1.521129-4.797079-4.641284-4.797079-7.949809A8.989389 8.989389 0 0 1 83.562932 374.584299l550.508349-288.490401a9.024797 9.024797 0 0 1 4.188061-1.045245 8.936985 8.936985 0 0 1 4.165399 1.038163l550.455945 288.484736c3.004017 1.577781 4.867895 4.625704 4.867895 7.952642 0 3.379342-1.831303 6.441427-4.748924 7.973886z" fill="#479BF1" p-id="1032"></path></svg>