<?xml version="1.0" standalone="no"?><!DOCTYPE svg PUBLIC "-//W3C//DTD SVG 1.1//EN" "http://www.w3.org/Graphics/SVG/1.1/DTD/svg11.dtd"><svg t="1500711609016" class="icon" style="" viewBox="0 0 1024 1024" version="1.1" xmlns="http://www.w3.org/2000/svg" p-id="19598" xmlns:xlink="http://www.w3.org/1999/xlink" width="200" height="200"><defs><style type="text/css"></style></defs><path d="M646.679089 829.073102l27.089153-46.256006s-61.589489 25.236357-164.70716 25.236357c-103.117671 0-163.812706-24.278014-163.812706-24.278015l30.347518 50.472714 10.733438 159.084883c0 17.250168 56.094991 30.666965 125.223441 30.666965 69.25623 0 125.351221-13.416797 125.351221-30.666965l9.775095-163.557149z m26.1947-300.60015c-32.775319 1.916685-49.194924 38.525375-65.678417 76.986861-6.069504 14.055692-26.833595 74.111833-40.442061 66.70065-13.608466-7.411183 17.633505-56.733886 26.386368-86.059172-10.094543 7.411183-47.150459 36.225353-56.669996 9.20009-15.333483 13.416797-48.172691 20.444644-44.4671-14.055693-8.177857 14.694588-26.514147 35.139231-48.556028 26.1947-28.75028-10.861217 16.802941-102.862113 28.111384-98.389847 11.372333 5.111161-2.236133 25.555804-5.750056 33.861441-7.922299 17.889063-16.99461 40.889287-10.861216 45.361552 10.222322 8.305636 38.525375-30.02807 39.16427-30.666965 5.302829-7.027846 20.444644-52.389399 32.583651-47.278238 12.139007 5.750056-30.347518 65.806196-14.502919 77.945203 3.194476 2.55558 16.291825-1.27779 24.278014-10.222321 5.111161-5.111161 3.322255-17.889063 20.444643-58.778351 17.250168-40.889287 32.583651-92.000896 44.339321-88.167525 11.75567 3.833371 2.044464 30.02807-2.172243 40.250392-19.805748 46.000448-54.114416 121.390071-37.95037 115.640015 15.972378-5.750056 24.278014-5.750056 40.250392-24.278014 15.972378-18.527958 14.694588-49.194924 25.555804-48.556028 10.222322 0.638895 8.944532 10.861217 6.388952 17.889063 10.222322-11.500112 49.194924-37.055916 58.139455-12.139007 10.861217 29.389175-55.583875 72.195148-38.972602 69.639567 15.972378-1.916685 42.167077-18.527958 53.667189-33.861441l30.666965-277.280478s-31.30586 25.555804-228.724449 25.555804-225.529974-24.916909-225.529974-24.916909l26.194699 253.002464c14.055692-39.611497 47.278238-120.112281 99.028742-116.917806 23.639119 1.27779 55.583875 47.278238 28.111385 48.556029-11.500112 0.638895-12.777902-23.000224-26.194699-26.1947-10.222322-1.916685-23.639119 5.750056-32.583651 14.694588-17.250168 17.250168-55.583875 85.611945-50.472714 119.473386 6.388951 43.444868 60.05614-14.694588 69.000672-31.944756 6.388951-12.139007 10.861217-48.556028 24.278015-44.722658 14.055692 3.833371-1.27779 41.528182-11.500112 74.111833-11.500112 37.055916-17.250168 76.028518-31.305861 71.556253-14.055692-4.472266 8.944532-52.389399 7.666741-60.695036-13.416797 12.777902-37.694812 43.444868-69.639567 28.111385l15.972378 157.807092s43.444868 33.861441 173.77947 33.861441 175.696155-33.861441 175.696156-33.861441l20.444643-182.724001c-16.611273 16.611273-69.000672 45.361553-72.195147 12.777902-2.55558-26.1947 56.861665-63.889511 41.528182-64.528406zM740.085555 28.537528L626.617783 148.010914 605.917581 229.150593c80.245226 5.111161 136.084659 16.419604 136.084659 29.580843 0 17.889063-102.989892 32.328093-230.00224 32.328093s-230.00224-14.694588-230.00224-32.583651 102.989892-32.583651 230.00224-32.58365c18.016842 0 35.969795 0 53.922747 0.638895l23.894677-97.112057 120.559508-127.779022c2.938918-3.833371 11.947339-0.638895 20.189085 6.388951 8.305636 6.388951 12.777902 14.694588 10.222322 18.527958v1.27779zM576.528406 275.789936s-22.361329 0-26.06692-3.450034a5.750056 5.750056 0 0 1-1.533349-3.83337c0-2.427801 1.661127-3.833371 3.833371-4.663935l1.916685 3.194476c-0.894453 0.255558-1.27779 0.638895-1.405569 0.958342 0 1.788906 13.416797 3.002807 23.639119 2.875028 10.222322-0.127779 22.680776-1.022232 22.744666-2.747249 0-0.511116-0.958343-1.022232-2.55558-1.405569l1.916685-3.066696c2.683359 0.830564 4.983382 2.427801 4.983382 5.111161 0 4.727824-6.005614 5.494498-9.838985 6.005614-4.600045 0.638895-17.569616 1.022232-17.569615 1.022232z" fill="#e66d58" p-id="19599"></path></svg>