<?xml version="1.0" standalone="no"?><!DOCTYPE svg PUBLIC "-//W3C//DTD SVG 1.1//EN" "http://www.w3.org/Graphics/SVG/1.1/DTD/svg11.dtd"><svg t="1500711545230" class="icon" style="" viewBox="0 0 1024 1024" version="1.1" xmlns="http://www.w3.org/2000/svg" p-id="17735" xmlns:xlink="http://www.w3.org/1999/xlink" width="200" height="200"><defs><style type="text/css"></style></defs><path d="M584.362667 127.957333V213.333333h85.418666v213.333334a85.333333 85.333333 0 0 0 85.290667 85.333333 85.333333 85.333333 0 0 0-85.333333 85.333333v213.333334h-85.333334v85.333333h85.333334a85.333333 85.333333 0 0 0 85.333333-85.333333v-170.666667a85.333333 85.333333 0 0 1 85.333333-85.333333h42.666667V469.333333h-42.666667a85.333333 85.333333 0 0 1-85.333333-85.333333V213.333333a85.333333 85.333333 0 0 0-85.333333-85.376z m-1.28 544.682667v20.053333a42.666667 42.666667 0 0 0 1.28-10.069333 42.666667 42.666667 0 0 0-1.28-9.984zM450.816 896v-85.376H365.44v-213.333333a85.333333 85.333333 0 0 0-85.333333-85.333334 85.333333 85.333333 0 0 0 85.333333-85.333333V213.333333h85.376v-85.333333H365.44a85.333333 85.333333 0 0 0-85.333333 85.333333v170.666667a85.333333 85.333333 0 0 1-85.333334 85.333333h-42.624V554.666667h42.666667a85.333333 85.333333 0 0 1 85.333333 85.333333v170.624A85.333333 85.333333 0 0 0 365.397333 896z m1.28-544.682667v-20.053333a42.666667 42.666667 0 0 0-1.28 10.069333 42.666667 42.666667 0 0 0 1.28 9.984z" fill="#42A5F5" p-id="17736"></path></svg>