<?xml version="1.0" standalone="no"?><!DOCTYPE svg PUBLIC "-//W3C//DTD SVG 1.1//EN" "http://www.w3.org/Graphics/SVG/1.1/DTD/svg11.dtd"><svg t="1500823349870" class="icon" style="" viewBox="0 0 1024 1024" version="1.1" xmlns="http://www.w3.org/2000/svg" p-id="6665" xmlns:xlink="http://www.w3.org/1999/xlink" width="200" height="200"><defs><style type="text/css"></style></defs><path d="M697.668267 532.1472a210.2272 210.2272 0 0 0 38.912-121.992533c0-117.418667-96.494933-212.9152-215.0912-212.9152-118.656 0-215.1936 95.505067-215.1936 212.9408 0 45.9008 14.762667 88.448 39.8336 123.255466L246.510933 710.946133a14.208 14.208 0 0 0 0.119467 14.071467 14.506667 14.506667 0 0 0 12.194133 7.168l89.3184 2.005333 48.9472 73.915734c2.688 4.036267 7.227733 6.459733 12.603734 6.519466a14.583467 14.583467 0 0 0 12.1088-7.3472l98.816-176.034133L620.544 809.284267c2.491733 4.437333 7.150933 7.253333 12.288 7.4496h0.554667c4.923733 0 9.5232-2.466133 12.219733-6.613334l49.655467-74.973866 90.5984-2.030934a14.711467 14.711467 0 0 0 12.373333-7.278933 14.4128 14.4128 0 0 0 0.110933-14.267733L697.668267 532.138667z m-19.985067 24.2176l83.242667 148.3008-74.043734 1.681067c-4.804267 0.119467-9.258667 2.56-11.895466 6.5536l-40.6016 61.2864-85.76-152.832a215.517867 215.517867 0 0 0 129.058133-64.989867z m-184.533333 64.836267l-84.992 151.4752-40.021334-60.416a14.455467 14.455467 0 0 0-11.733333-6.459734l-72.9856-1.664 82.517333-147.012266a215.671467 215.671467 0 0 0 127.214934 64.085333zM512 1024C229.230933 1024 0 794.769067 0 512S229.230933 0 512 0s512 229.230933 512 512-229.230933 512-512 512z m9.489067-792.4736c99.473067 0 180.437333 80.136533 180.437333 178.628267 0 98.4576-80.964267 178.577067-180.437333 178.577066-99.5584 0-180.548267-80.119467-180.548267-178.577066 0-98.491733 80.989867-178.628267 180.548267-178.628267z m0 305.015467c70.4 0 127.6928-56.721067 127.6928-126.3616 0-69.717333-57.2928-126.421333-127.6928-126.421334-70.459733 0-127.752533 56.695467-127.752534 126.421334 0 69.666133 57.2928 126.3616 127.744 126.3616z m0-220.347734c52.3264 0 94.890667 42.154667 94.890666 93.952 0 51.7888-42.564267 93.909333-94.890666 93.909334-52.360533 0-94.9504-42.120533-94.9504-93.909334 0-51.797333 42.589867-93.952 94.941866-93.952z" fill="#479BF1" p-id="6666"></path></svg>