<?xml version="1.0" standalone="no"?><!DOCTYPE svg PUBLIC "-//W3C//DTD SVG 1.1//EN" "http://www.w3.org/Graphics/SVG/1.1/DTD/svg11.dtd"><svg t="1499853616904" class="icon" style="" viewBox="0 0 1024 1024" version="1.1" xmlns="http://www.w3.org/2000/svg" p-id="3940" xmlns:xlink="http://www.w3.org/1999/xlink" width="200" height="200"><defs><style type="text/css"></style></defs><path d="M512 41.6C252.8 41.6 41.6 252.8 41.6 512c0 144 64 277.76 176.64 367.36A469.184 469.184 0 0 0 512 982.4c108.16 0 209.92-35.84 293.76-103.04A466.24 466.24 0 0 0 982.4 512c0-259.2-211.2-470.4-470.4-470.4zM368.64 409.6c0-79.36 64.64-143.36 143.36-143.36s143.36 64 143.36 143.36a143.36 143.36 0 0 1-286.72 0zM512 931.2a410.24 410.24 0 0 1-249.6-82.56C294.4 704 394.88 603.52 512 603.52s217.6 100.48 249.6 245.12A410.24 410.24 0 0 1 512 931.2z" fill="#ffffff" p-id="3941"></path></svg>