<?xml version="1.0" standalone="no"?><!DOCTYPE svg PUBLIC "-//W3C//DTD SVG 1.1//EN" "http://www.w3.org/Graphics/SVG/1.1/DTD/svg11.dtd"><svg t="1500539388323" class="icon" style="" viewBox="0 0 1024 1024" version="1.1" xmlns="http://www.w3.org/2000/svg" p-id="2022" xmlns:xlink="http://www.w3.org/1999/xlink" width="200" height="200"><defs><style type="text/css"></style></defs><path d="M338.688 696.8 336.224 703.408 342.736 685.952Z" p-id="2023" fill="#ffffff"></path><path d="M336 704 336.592 703.776 336.224 703.408Z" p-id="2024" fill="#ffffff"></path><path d="M336.592 703.776 354.512 696.8 342.736 701.376Z" p-id="2025" fill="#ffffff"></path><path d="M512 0C229.232 0 0 229.232 0 512s229.232 512 512 512 512-229.232 512-512S794.768 0 512 0zM484.64 673.232l-159.824 60.416-11.552-11.904 53.776-176.08 104.912-60.432 70.896 75.232L484.64 673.232zM576 528l-80-80 144-160 96 96L576 528z" p-id="2026" fill="#ffffff"></path><path d="M533.456 448 576 489.76 687.376 384 640 337.504Z" p-id="2027" fill="#ffffff"></path><path d="M386.608 568.32 342.736 685.952 425.936 602.752 437.248 614.064 354.512 696.8 464.032 654.208 512 560 464 512Z" p-id="2028" fill="#ffffff"></path></svg>