<?xml version="1.0" standalone="no"?><!DOCTYPE svg PUBLIC "-//W3C//DTD SVG 1.1//EN" "http://www.w3.org/Graphics/SVG/1.1/DTD/svg11.dtd"><svg t="1500823198469" class="icon" style="" viewBox="0 0 1088 1024" version="1.1" xmlns="http://www.w3.org/2000/svg" p-id="5868" xmlns:xlink="http://www.w3.org/1999/xlink" width="212.5" height="200"><defs><style type="text/css"></style></defs><path d="M45.696 268.992V908.8c0 63.808 51.456 115.264 115.328 115.264h639.68c63.872 0 115.264-51.456 115.264-115.264v-39.04h38.4c63.936 0 115.328-51.456 115.328-115.264V115.2C1069.696 51.456 1018.304 0 954.432 0H314.752C250.88 0 199.424 51.456 199.424 115.264v39.04h-38.4A114.56 114.56 0 0 0 45.696 268.992z m870.272 512.64v-512.64c0-63.808-51.392-115.264-115.2-115.264h-512.64v-39.04c0-14.72 11.84-26.624 26.624-26.624h639.68c14.72 0 26.624 11.84 26.624 26.624v639.744c0 14.72-11.84 26.56-26.624 26.56h-38.4v0.64z" fill="#5994e8" p-id="5869"></path></svg>