<?xml version="1.0" standalone="no"?><!DOCTYPE svg PUBLIC "-//W3C//DTD SVG 1.1//EN" "http://www.w3.org/Graphics/SVG/1.1/DTD/svg11.dtd"><svg t="1499860437187" class="icon" style="" viewBox="0 0 1024 1024" version="1.1" xmlns="http://www.w3.org/2000/svg" p-id="17561" xmlns:xlink="http://www.w3.org/1999/xlink" width="200" height="200"><defs><style type="text/css"></style></defs><path d="M512 61.439304c-245.696842 0-444.874183 201.721281-444.874183 450.557626s199.177342 450.563766 444.874183 450.563766 444.874183-201.726398 444.874183-450.563766S757.696842 61.439304 512 61.439304zM274.385231 200.432938c9.360182-9.394974 24.469298-9.626241 33.93181-0.025583 0.052189 0.025583 122.785487 123.924427 122.785487 123.924427l0 0.159636c8.988722 9.096169 9.911744 24.347524 0 34.411741l0 0.10847c0 0.071631-43.268456 43.700291-43.268456 43.700291L231.142357 244.256026 274.385231 200.432938zM362.764094 647.38034C145.70857 422.521083 196.339714 285.163715 219.208561 256.31876l156.795069 158.320818c-22.344914 22.617114-0.705058 54.773488 23.765263 85.374436 34.867112 43.715641 75.126025 82.423221 110.005416 111.211894 52.819996 43.529399 80.323397 62.71639 101.69617 41.133839l152.887063 154.60724C738.969315 833.659931 591.456656 884.395452 362.764094 647.38034zM819.640636 751.622496l-0.101307 0.076748c0.049119 0.051165-43.243897 43.724851-43.243897 43.724851L623.007233 640.415718l43.242873-43.812855c9.399067-9.410324 24.49488-9.596566 33.933857-0.046049 0.062422 0.046049 119.355365 120.435976 119.355365 120.435976l0 0.134053C828.550563 726.311017 829.550333 741.588979 819.640636 751.622496z" p-id="17562" fill="#ffffff"></path></svg>