<?xml version="1.0" standalone="no"?><!DOCTYPE svg PUBLIC "-//W3C//DTD SVG 1.1//EN" "http://www.w3.org/Graphics/SVG/1.1/DTD/svg11.dtd"><svg t="1500713180627" class="icon" style="" viewBox="0 0 1024 1024" version="1.1" xmlns="http://www.w3.org/2000/svg" p-id="20642" xmlns:xlink="http://www.w3.org/1999/xlink" width="200" height="200"><defs><style type="text/css"></style></defs><path d="M826.709333 682.154667l-328.917333 189.866666-328.874667-189.866666V302.378667l328.874667-189.866667 328.917333 189.866667z" fill="#FFFFFF" p-id="20643"></path><path d="M524.202667 84.48c-8.96 0-17.493333 2.517333-24.32 7.637333l-337.066667 189.44c-13.653333 7.253333-22.613333 21.333333-22.613333 37.546667v384c0 16.213333 8.96 30.336 22.613333 37.589333l337.066667 189.44c6.826667 5.12 15.36 7.68 24.32 7.68 8.96 0 17.493333-2.56 24.32-7.68l337.066666-189.44c13.653333-7.253333 22.613333-21.333333 22.613334-37.546666v-384c0-16.213333-8.96-30.378667-22.613334-37.632l-337.066666-189.44a40.32 40.32 0 0 0-24.32-7.637334z m0 91.733333l298.666666 168.064v89.770667h-0.682666v220.885333h0.682666v23.04l-298.666666 168.064-298.666667-168.106666V344.32l298.666667-168.106667z m0 88.746667l-209.066667 120.746667 209.066667 120.746666 209.066666-120.746666-209.066666-120.746667z m-213.333334 216.746667v152.746666l170.666667 98.474667v-152.746667l-170.666667-98.474666z m426.666667 0l-170.666667 98.474666v152.746667l170.666667-98.474667v-152.746666z" fill="#8ED6FB" p-id="20644"></path><path d="M524.202667 264.96l-209.066667 120.746667 209.066667 120.746666 209.066666-120.746666-209.066666-120.746667z m-213.333334 216.746667v152.746666l170.666667 98.474667v-152.746667l-170.666667-98.474666z m426.666667 0l-170.666667 98.474666v152.746667l170.666667-98.474667v-152.746666z" fill="#1C78C0" p-id="20645"></path></svg>