<?xml version="1.0" standalone="no"?><!DOCTYPE svg PUBLIC "-//W3C//DTD SVG 1.1//EN" "http://www.w3.org/Graphics/SVG/1.1/DTD/svg11.dtd"><svg t="1499858100822" class="icon" style="" viewBox="0 0 1024 1024" version="1.1" xmlns="http://www.w3.org/2000/svg" p-id="7701" xmlns:xlink="http://www.w3.org/1999/xlink" width="200" height="200"><defs><style type="text/css"></style></defs><path d="M512 0C230.4 0 0 228.072727 0 512s230.4 512 512 512c283.927273 0 512-228.072727 512-512S795.927273 0 512 0z m214.109091 558.545455l-9.309091 9.30909c-48.872727 48.872727-123.345455 53.527273-176.872727 13.963637-27.927273 30.254545-144.290909 162.909091-144.290909 162.909091-18.618182 18.618182-76.8 41.890909-118.690909 0-39.563636-39.563636-18.618182-97.745455 0-118.690909l162.90909-144.290909c-37.236364-53.527273-32.581818-125.672727 16.29091-174.545455l9.30909-9.309091c41.890909-41.890909 128-41.890909 172.218182-41.890909 13.963636 0 4.654545 9.309091 4.654546 9.309091l-81.454546 81.454545c-9.309091 9.309091-6.981818 27.927273-6.981818 27.927273s6.981818 69.818182 16.290909 79.127273c9.309091 9.309091 76.8 16.290909 76.8 16.290909s25.6 0 32.581818-6.981818 79.127273-81.454545 79.127273-81.454546 9.309091-9.309091 9.309091 4.654546c0 46.545455-2.327273 130.327273-41.890909 172.218182z" fill="#ffffff" p-id="7702"></path><path d="M351.418182 672.581818m-48.872727 0a48.872727 48.872727 0 1 0 97.745454 0 48.872727 48.872727 0 1 0-97.745454 0Z" fill="#ffffff" p-id="7703"></path></svg>